# xmcd CD database file
#
# Track frame offsets:
#	187
#	92350
#	148497
#
# Disc length: 2321 seconds
#
# Revision: 0
# Processed by: cddbd v1.5PL3 Copyright (c) Steve Scherf et al.
# Submitted via: CDex 1.50beta10
#
DISCID=23090f03
DTITLE=Sonny Rollins - east broadway run down
DYEAR=1900
DGENRE=Jazz
TTITLE0=east broadway run down
TTITLE1=blessing in disguise
TTITLE2=we kiss in a shadow
EXTD=
EXTT0=
EXTT1=
EXTT2=
PLAYORDER=
